<?xml version="1.0" encoding="utf-8"?>
<!-- Generator: Adobe Illustrator 15.1.0, SVG Export Plug-In . SVG Version: 6.00 Build 0)  -->
<!DOCTYPE svg PUBLIC "-//W3C//DTD SVG 1.1//EN" "http://www.w3.org/Graphics/SVG/1.1/DTD/svg11.dtd">
<svg version="1.1" id="Layer_1" xmlns="http://www.w3.org/2000/svg" xmlns:xlink="http://www.w3.org/1999/xlink" x="0px" y="0px"
	 width="100px" height="99.864px" viewBox="0 0 100 99.864" enable-background="new 0 0 100 99.864" xml:space="preserve">
<g>
	<path fill="#231F20" d="M50.044,26.097c14.979,0,27.166,12.187,27.166,27.163c0,14.983-12.188,27.165-27.166,27.165
		S22.879,68.242,22.879,53.26C22.879,38.283,35.065,26.097,50.044,26.097 M50.044,20.663c-18.003,0-32.598,14.595-32.598,32.598
		c0,18.007,14.595,32.6,32.598,32.6c18.004,0,32.597-14.593,32.597-32.6C82.641,35.258,68.048,20.663,50.044,20.663"/>
	<path fill="#231F20" d="M36.462,65.485c2.175,5.563,7.248,9.509,13.582,9.509s11.406-3.945,13.583-9.509H36.462z"/>
	<path fill="#231F20" d="M43.252,47.15c0,2.628-2.128,4.754-4.754,4.754s-4.754-2.126-4.754-4.754s2.128-4.755,4.754-4.755
		S43.252,44.522,43.252,47.15"/>
	<path fill="#231F20" d="M66.344,47.15c0,2.628-2.128,4.754-4.754,4.754s-4.754-2.126-4.754-4.754s2.128-4.755,4.754-4.755
		S66.344,44.522,66.344,47.15"/>
</g>
</svg>
