<svg xmlns="http://www.w3.org/2000/svg" xmlns:xlink="http://www.w3.org/1999/xlink" version="1.1" x="0px" y="0px" width="100px" height="100px" viewBox="0 0 100 100" enable-background="new 0 0 100 100" xml:space="preserve">
<g id="Layer_1" display="none">
	<path display="inline" fill-rule="evenodd" clip-rule="evenodd" fill="#000000" d="M57.982,14.233l-0.593-2.188l3.373,3.947v1.697   c2.522,1.077,4.6,2.705,6.236,4.886c-0.723-0.177-1.397-0.327-2.025-0.45c-1.253-0.246-1.668-0.211-1.246,0.103   c0.463,0.367,1.321,1.847,2.576,4.437c1.187,2.494,1.895,4.219,2.126,5.172c0.178,0.737-0.121,2.965-0.898,6.687   c-0.382,1.867-0.783,3.653-1.207,5.357l-0.45,0.735c-0.162,0.437,0.13,0.531,0.879,0.286c0.737-0.245,1.193,0.015,1.37,0.778   c0.095,0.394,0.115,0.811,0.062,1.246l-1.391,4.846c-0.968,3.285-1.595,5.078-1.882,5.379c-0.299,0.298-0.749,0.319-1.35,0.06   c-0.313-0.081-0.49-0.286-0.532-0.613l0.083,0.92c-0.014,0.969-0.13,2.088-0.348,3.354c-0.231,1.269-0.907,2.766-2.023,4.498   l-2.169,2.537c-0.408,1.622-0.668,2.608-0.776,2.964c-0.041,0-0.062,0.02-0.062,0.061c-0.026,0.149-0.008,0.13,0.062-0.061   c0.245,0.015,1.282,0.947,3.107,2.8c1.064,1.052,2.113,2.135,3.149,3.253c15.416,5.139,25.456,8.416,30.118,9.835v7.831H6.333   v-3.19c1.322-0.382,2.618-0.723,3.885-1.021c1.063-0.831,4.151-2.577,9.262-5.235c2.48-1.308,4.873-2.536,7.177-3.681   c0-0.246,0-0.524,0-0.837c0-1.786,0.715-3.45,2.146-4.988c0.709-0.767,1.417-1.35,2.127-1.761c0.612-0.587,1.056-1.31,1.328-2.168   c0.218-0.682,0.443-1.13,0.675-1.348c-0.558-1.35-1.335-2.42-2.33-3.212c-1.65-1.336-2.815-3.646-3.498-6.93   c-0.218-1.038-0.375-2.101-0.47-3.19l-0.062-1.35c-0.967,0.341-1.642,0.457-2.023,0.348c-0.382-0.109-0.934-1.629-1.656-4.56   c-0.791-3.176-1.111-5.732-0.961-7.668c0.136-1.786,0.743-2.645,1.819-2.576c0.532,0.042,1.042,0.26,1.534,0.654   c-0.341-1.077-0.695-2.263-1.064-3.558c-0.735-2.576-1.137-4.621-1.205-6.134c-0.069-1.445,0.708-3.633,2.331-6.564   c0.395-0.708,0.919-1.635,1.574-2.781c0.422-0.804,0.579-1.26,0.47-1.37c-0.176-0.191-0.176-0.435,0-0.736   c0.259-0.422,0.403-0.708,0.43-0.858c0.067-0.504,0.661-1.036,1.779-1.596c0.451-0.231,2.611-1.411,6.481-3.536l0.409-0.594   l-1.084-0.675l-0.756-1.349l-0.593-1.513l3.373,0.715l-0.757-0.206l1.35-0.264c0.327-0.342,0.436-0.512,0.327-0.512l0.082-0.737   l0.592,0.409l0.512-0.163l0.491-0.941l0.246,0.654c0.189,0.505,0.395,0.961,0.613,1.37c0.191,0.382,0.361,0.607,0.512,0.675   c0.272,0.123,0.49,0.266,0.653,0.429c0.288,0.273,0.532,0.354,0.737,0.246c0.096-0.054,0.164-0.136,0.204-0.246   c-0.286-0.504-0.573-0.899-0.858-1.185c-0.163-0.178-0.313-0.471-0.45-0.88l-0.123-0.552l1.431,0.592l1.269,1.104l1.512,0.083   l-0.674-0.92c0-0.34-0.145-0.653-0.429-0.94c-0.178-0.178,0.095-0.089,0.817,0.265c0.355,0.178,0.73,0.375,1.125,0.594l0.838,0.081   l0.53,0.225c0.396,0.218,0.75,0.45,1.064,0.695c0.329,0.246,0.552,0.095,0.675-0.45c0.095-0.682,0.157-1.098,0.183-1.247   c0.028-0.178,0.246-0.328,0.655-0.451c0.203-0.054,0.401-0.102,0.592-0.143l1.37,2.291c0.163,0.273,0.497,0.75,1.001,1.431   l0.309-0.245c0.203-0.191,0.271-0.389,0.203-0.594l-0.858-2.617l0.307,0.042c0.232,0.081,0.443,0.266,0.634,0.552   c0.273,0.436,0.92,1.526,1.943,3.271l1.164,2.024L57.982,14.233z"/>
</g>
<g id="Layer_1_copy" display="none">
	<g display="inline">
		<g>
			<path fill-rule="evenodd" clip-rule="evenodd" fill="#000000" d="M57.809,20.904l-0.511-1.888l2.908,3.404v1.463     c2.176,0.929,3.968,2.333,5.379,4.214c-0.623-0.152-1.205-0.281-1.747-0.388c-1.08-0.212-1.438-0.182-1.074,0.089     c0.399,0.316,1.139,1.593,2.222,3.826c1.022,2.151,1.633,3.639,1.833,4.461c0.153,0.635-0.104,2.557-0.774,5.768     c-0.329,1.61-0.675,3.15-1.041,4.62l-0.389,0.634c-0.14,0.377,0.112,0.458,0.759,0.247c0.635-0.211,1.029,0.013,1.181,0.671     c0.082,0.339,0.1,0.699,0.055,1.074l-1.199,4.18c-0.835,2.832-1.375,4.379-1.624,4.638c-0.257,0.258-0.646,0.276-1.163,0.052     c-0.271-0.07-0.423-0.246-0.459-0.528l0.071,0.793c-0.012,0.835-0.112,1.801-0.3,2.893c-0.199,1.094-0.782,2.385-1.744,3.879     l-1.871,2.188c-0.353,1.398-0.576,2.249-0.67,2.556c-0.035,0-0.054,0.017-0.054,0.053c-0.022,0.128-0.006,0.111,0.054-0.053     c0.211,0.013,1.106,0.817,2.68,2.415c0.918,0.906,1.823,1.841,2.717,2.805C76.341,79.401,85,82.229,89.021,83.453v6.753H13.265     v-2.751c1.141-0.33,2.257-0.623,3.35-0.882c0.917-0.716,3.58-2.223,7.988-4.515c2.14-1.128,4.203-2.188,6.19-3.174     c0-0.213,0-0.453,0-0.723c0-1.54,0.617-2.976,1.851-4.303c0.612-0.66,1.223-1.163,1.835-1.518     c0.528-0.507,0.911-1.129,1.146-1.87c0.188-0.587,0.382-0.974,0.582-1.162c-0.481-1.164-1.152-2.087-2.009-2.771     c-1.423-1.152-2.428-3.145-3.017-5.976c-0.188-0.895-0.323-1.812-0.405-2.752l-0.053-1.164c-0.834,0.294-1.416,0.395-1.745,0.3     c-0.33-0.094-0.806-1.404-1.429-3.932c-0.682-2.74-0.959-4.944-0.829-6.613c0.118-1.541,0.641-2.281,1.569-2.222     c0.458,0.036,0.899,0.224,1.323,0.564c-0.294-0.929-0.6-1.951-0.917-3.068c-0.634-2.221-0.981-3.985-1.04-5.29     c-0.06-1.246,0.611-3.134,2.011-5.661c0.34-0.611,0.792-1.41,1.357-2.398c0.364-0.693,0.5-1.087,0.405-1.182     c-0.152-0.165-0.152-0.375,0-0.634c0.223-0.364,0.347-0.611,0.37-0.741c0.058-0.435,0.571-0.893,1.534-1.376     c0.389-0.199,2.252-1.216,5.59-3.049l0.353-0.513l-0.935-0.582l-0.651-1.163l-0.512-1.305l2.909,0.617l-0.652-0.177l1.165-0.228     c0.282-0.295,0.376-0.441,0.282-0.441l0.071-0.635l0.51,0.353l0.441-0.141l0.424-0.812l0.212,0.564     c0.163,0.436,0.34,0.829,0.528,1.182c0.165,0.33,0.312,0.523,0.441,0.582c0.235,0.106,0.423,0.23,0.564,0.37     c0.248,0.236,0.459,0.306,0.635,0.212c0.082-0.046,0.142-0.117,0.176-0.212c-0.247-0.435-0.494-0.775-0.741-1.021     c-0.141-0.153-0.27-0.406-0.388-0.759l-0.106-0.476l1.235,0.511l1.094,0.952l1.304,0.071L46.699,17.5     c0-0.293-0.124-0.563-0.37-0.811c-0.154-0.153,0.083-0.077,0.704,0.229c0.307,0.153,0.63,0.324,0.971,0.512l0.724,0.069     l0.457,0.195c0.342,0.188,0.647,0.387,0.917,0.599c0.284,0.212,0.477,0.082,0.583-0.388c0.082-0.588,0.135-0.947,0.157-1.075     c0.024-0.153,0.213-0.283,0.565-0.389c0.175-0.046,0.346-0.087,0.511-0.123l1.182,1.975c0.141,0.235,0.429,0.647,0.863,1.234     l0.267-0.211c0.174-0.165,0.233-0.335,0.174-0.513l-0.739-2.257l0.265,0.036c0.2,0.07,0.382,0.229,0.546,0.476     c0.236,0.375,0.794,1.316,1.677,2.821l1.004,1.746L57.809,20.904z"/>
		</g>
		<path fill-rule="evenodd" clip-rule="evenodd" fill="#000000" stroke="#010101" stroke-width="6" stroke-miterlimit="10" d="    M92.173,78.231c0,6.963-5.646,12.608-12.608,12.608H21.942c-6.964,0-12.609-5.646-12.609-12.608V20.609    C9.333,13.645,14.979,8,21.942,8h57.622c6.963,0,12.608,5.645,12.608,12.609V78.231z"/>
	</g>
</g>
<g id="Layer_2" display="none">
	<polygon display="inline" fill="#000000" points="76.29,47.674 23,6.337 30.471,72.576 46.783,63.711 62.614,89.407 75.771,81.3    60.381,56.32  "/>
</g>
<g id="Layer_2_copy" display="none">
	<polygon display="inline" fill="#000000" stroke="#010101" stroke-width="5" stroke-miterlimit="10" points="76.29,50.674 23,9.337    30.471,75.576 46.783,66.711 62.614,92.407 75.771,84.3 60.381,59.32  "/>
</g>
<g id="Layer_5">
	<path fill-rule="evenodd" clip-rule="evenodd" fill="#000000" d="M89.332,38l-2.045,1.589l2.706,0.438l1.794-1.443L89.332,38z    M84.482,40.139c-3.226-0.732-6.981-0.732-11.268,0c-4.285,0.732-8.057,1.901-11.312,3.506c-3.258,1.604-4.89,3.686-4.897,6.241   c-0.008,2.166,0.756,4.476,2.291,6.931c0.671,1.152,2.036,2.306,4.097,3.459s5.475,1.461,10.244,0.924   c3.311-0.764,6.011-2.069,8.099-3.916c2.097-1.854,3.884-4.99,5.365-9.408C88.588,43.45,87.716,40.872,84.482,40.139z    M53.457,43.424c5.821-2.789,11.994-4.869,18.52-6.242c6.856-1.091,13.713-1.519,20.57-1.286c2.625,0.593,3.144,2.088,1.554,4.489   l-0.386,0.456c-0.451,0.452-0.95,0.822-1.496,1.11c-0.443,0.452-0.818,1.247-1.122,2.385c-1.052,4.862-3.062,9.022-6.03,12.482   c-2.049,2.462-4.874,4.347-8.474,5.656c-1.137,0.397-2.201,0.705-3.19,0.923c-0.989,0.211-2.867,0.219-5.633,0.024   c-6.117-0.71-9.962-2.949-11.536-6.721c-1.565-3.771-2.007-6.382-1.321-7.831c0.25-0.981-0.334-1.41-1.752-1.285   c-1.816,0.283-3.624,0.283-5.424,0c-1.419-0.128-2.003,0.301-1.753,1.285c0.688,1.446,0.245,4.057-1.326,7.831   c-1.572,3.774-5.415,6.015-11.53,6.721c-2.769,0.19-4.646,0.181-5.633-0.029c-0.987-0.211-2.051-0.517-3.191-0.918   c-3.597-1.308-6.422-3.193-8.473-5.656c-2.967-3.457-4.977-7.617-6.031-12.482c-0.303-1.138-0.679-1.933-1.127-2.385   c-0.544-0.288-1.041-0.658-1.491-1.11l-0.386-0.456c-1.59-2.402-1.072-3.898,1.555-4.489c6.856-0.236,13.713,0.193,20.57,1.286   c6.591,1.388,12.824,3.493,18.699,6.317c0.992,0.188,1.967,0.287,2.923,0.298c0.821,0.011,1.739-0.088,2.752-0.298   C53.349,43.473,53.403,43.447,53.457,43.424z M13.609,39.589L11.564,38l-2.455,0.584l1.806,1.455L13.609,39.589z M27.681,40.139   c-4.283-0.734-8.04-0.734-11.272,0c-3.233,0.736-4.105,3.315-2.618,7.737c1.486,4.421,3.274,7.555,5.364,9.402   c2.091,1.849,4.793,3.155,8.105,3.922c4.765,0.538,8.193,0.243,10.285-0.883c2.094-1.126,3.511-2.293,4.254-3.5   c1.4-2.454,2.098-4.765,2.092-6.931c-0.007-2.557-1.64-4.637-4.897-6.241C35.737,42.04,31.965,40.872,27.681,40.139z"/>
</g>
</svg>
