<svg xmlns:dc="http://purl.org/dc/elements/1.1/" xmlns:cc="http://creativecommons.org/ns#" xmlns:rdf="http://www.w3.org/1999/02/22-rdf-syntax-ns#" xmlns:svg="http://www.w3.org/2000/svg" xmlns="http://www.w3.org/2000/svg" xmlns:sodipodi="http://sodipodi.sourceforge.net/DTD/sodipodi-0.dtd" xmlns:inkscape="http://www.inkscape.org/namespaces/inkscape" width="100" height="100" viewBox="0 0 80 80" version="1.1" id="svg2" inkscape:version="0.48.2 r9819" sodipodi:docname="wind.svg">
  <metadata id="metadata10">
    <rdf:RDF>
      <cc:Work rdf:about="">
        <dc:format>image/svg+xml</dc:format>
        <dc:type rdf:resource="http://purl.org/dc/dcmitype/StillImage"/>
        <dc:title/>
      </cc:Work>
    </rdf:RDF>
  </metadata>
  <defs id="defs8">
    <inkscape:path-effect is_visible="true" id="path-effect5043" effect="spiro"/>
    <inkscape:path-effect is_visible="true" id="path-effect5065" effect="spiro"/>
  </defs>
  <sodipodi:namedview pagecolor="#ffffff" bordercolor="#666666" borderopacity="1" objecttolerance="10" gridtolerance="10" guidetolerance="10" inkscape:pageopacity="0" inkscape:pageshadow="2" inkscape:window-width="1600" inkscape:window-height="853" id="namedview6" showgrid="true" inkscape:zoom="2.4333955" inkscape:cx="174.91233" inkscape:cy="79.097382" inkscape:window-x="-4" inkscape:window-y="-4" inkscape:window-maximized="1" inkscape:current-layer="svg2" inkscape:snap-grids="false">
    <inkscape:grid type="xygrid" id="grid3807"/>
  </sodipodi:namedview>
  <path style="fill:#000000;stroke:none" d="m 19.754385,3.4310826 c 0,10.6672534 6.711902,38.1322274 17.147985,39.7363674 l 0,29.331296 -12.629967,2.366694 -0.09487,0 c -0.496717,0.02559 -0.926068,0.504466 -0.901231,1.006291 0.02483,0.501782 0.499377,0.935491 0.996103,0.910454 l 28.459944,0 c 0.501194,0.0077 0.96053,-0.452066 0.96053,-0.958372 0,-0.506402 -0.459336,-0.965557 -0.96053,-0.958373 l -10.732648,-2.366694 0,-29.331296 C 52.435796,41.56331 59.147706,14.098336 59.147706,3.4310826 l -19.696665,0 -8.644716,0 0.891009,7.4439504 4.123429,-0.657517 1.73295,11.447626 3.13714,-0.493138 0.746677,10.297014 -1.897333,-7.121037 -3.301519,-0.05585 L 34.25218,13.722207 29.964384,14.488254 27.225115,3.4310826 z" id="path7545" inkscape:connector-curvature="0" inkscape:export-filename="C:\Users\jkeuning\Dropbox\misc work\interprographic\Victor Stanley v. Creative Pipe\Victor Stanley v redo.png" inkscape:export-xdpi="90" inkscape:export-ydpi="90" sodipodi:nodetypes="cccccsccsccccccccccccccccc"/>
</svg>