<svg xmlns="http://www.w3.org/2000/svg" xmlns:xlink="http://www.w3.org/1999/xlink" version="1.1" x="0px" y="0px" width="100px" height="100px" viewBox="0 0 100 100" enable-background="new 0 0 100 100" xml:space="preserve">
<g id="Captions">
	<rect x="-192" width="185" height="99"/>
	<rect y="-36" width="100" height="30"/>
	<text transform="matrix(1 0 0 1 66 -19.5)" fill="#000000" font-family="'Helvetica'" font-size="2.4">http://thenounproject.com</text>
	<text transform="matrix(1 0 0 1 7.166 -24.5)"><tspan x="0" y="0" fill="#000000" font-family="'Helvetica-Bold'" font-size="6.1578">The Noun Project</tspan><tspan x="1.12" y="4.8" fill="#000000" font-family="'Helvetica-Bold'" font-size="4">Icon Template</tspan></text>
	<text transform="matrix(1 0 0 1 -178.5 10.5)" fill="#000000" font-family="'Helvetica-Bold'" font-size="6.1578">Reminders</text>
	<line fill="#000000" stroke="#FFFFFF" stroke-miterlimit="10" x1="8" y1="-14.5" x2="18" y2="-14.5"/>
	<line fill="#000000" stroke="#FFFFFF" stroke-miterlimit="10" x1="-179" y1="16.5" x2="-162" y2="16.5"/>
	<g>
		<g>
			<g>
				<rect x="-170.802" y="31.318" fill="#000000" width="8.721" height="8.642"/>
				<path fill="#000000" d="M-164.455,42.312h4.747v-4.703h-4.747V42.312z M-159.266,42.749h-5.63V37.17h5.63V42.749      L-159.266,42.749z M-166.221,44.062h8.279v-8.203h-8.279V44.062L-166.221,44.062z M-157.5,44.5h-9.163v-9.079h9.163V44.5      L-157.5,44.5z"/>
				<polygon fill="#000000" points="-166.149,44.133 -166.292,43.991 -158.013,35.787 -157.871,35.929     "/>
			</g>
		</g>
	</g>
	<rect x="-179" y="58" fill="none" width="35" height="32.5"/>
	<text transform="matrix(1 0 0 1 -179 60.1572)"><tspan x="0" y="0" fill="#000000" font-family="'Helvetica-Bold'" font-size="3">Strokes</tspan><tspan x="0" y="5" fill="#000000" font-family="'Helvetica'" font-size="2.4">Try to keep strokes at 4px</tspan><tspan x="0" y="10" fill="#000000" font-family="'Helvetica'" font-size="2.4">Minimum stroke weight is 2px</tspan><tspan x="0" y="14.5" fill="#000000" font-family="'Helvetica'" font-size="2.4">For thicker strokes use even </tspan><tspan x="0" y="17.5" fill="#000000" font-family="'Helvetica'" font-size="2.4">numbers: 6px, 8px etc.</tspan><tspan x="0" y="22" fill="#000000" font-family="'Helvetica-Bold'" font-size="2.4">Remember to expand strokes </tspan><tspan x="0" y="25" fill="#000000" font-family="'Helvetica-Bold'" font-size="2.4">before saving as an SVG </tspan></text>
	<rect x="-136.5" y="58" fill="none" width="35" height="32.5"/>
	<text transform="matrix(1 0 0 1 -136.5 60.1572)"><tspan x="0" y="0" fill="#000000" font-family="'Helvetica-Bold'" font-size="3">Size</tspan><tspan x="0" y="5" fill="#000000" font-family="'Helvetica'" font-size="2.4">Cannot be wider or taller than </tspan><tspan x="0" y="8.5" fill="#000000" font-family="'Helvetica'" font-size="2.4">100px (artboard size)</tspan><tspan x="0" y="13.5" fill="#000000" font-family="'Helvetica'" font-size="2.4">Scale your icon to fill as much of </tspan><tspan x="0" y="16.5" fill="#000000" font-family="'Helvetica'" font-size="2.4">the artboard as possible</tspan></text>
	<rect x="-94" y="58" fill="none" width="35" height="32.5"/>
	<text transform="matrix(1 0 0 1 -94 60.1572)"><tspan x="0" y="0" fill="#000000" font-family="'Helvetica-Bold'" font-size="3">Ungroup</tspan><tspan x="0" y="5" fill="#000000" font-family="'Helvetica'" font-size="2.4">If your design has more than one </tspan><tspan x="0" y="8" fill="#000000" font-family="'Helvetica'" font-size="2.4">shape, make sure to ungroup</tspan></text>
	<rect x="-50" y="58" fill="none" width="35" height="32.5"/>
	<text transform="matrix(1 0 0 1 -50 60.1572)"><tspan x="0" y="0" fill="#000000" font-family="'Helvetica-Bold'" font-size="3">Save as</tspan><tspan x="0" y="5" fill="#000000" font-family="'Helvetica'" font-size="2.4">Save as .SVG and make sure </tspan><tspan x="0" y="8" fill="#000000" font-family="'Helvetica'" font-size="2.4">&#8220;Use Artboards&#8221; is checked</tspan></text>
	<text transform="matrix(1.0074 0 0 1 -125.542 30.5933)" fill="#000000" font-family="'Helvetica'" font-size="2.5731">100px</text>
	<text transform="matrix(1.0074 0 0 1 -41 39)" fill="#000000" font-family="'Helvetica-Bold'" font-size="5.1462">.SVG</text>
	<rect x="-126.514" y="34.815" fill="#000000" width="10.261" height="10.185"/>
	<rect x="-126.477" y="31.766" fill="#000000" width="0.522" height="2.337"/>
	<rect x="-116.812" y="31.766" fill="#000000" width="0.523" height="2.337"/>
	<rect x="-127" y="32.337" fill="#000000" width="11.233" height="0.572"/>
	<g>
		<rect x="-83.805" y="33.844" fill="#000000" width="10.305" height="10.156"/>
		<rect x="-76.809" y="28.707" fill="#000000" width="3.308" height="3.261"/>
	</g>
	<rect x="-178.5" y="22.5" fill="#000000" stroke="#FFFFFF" stroke-miterlimit="10" width="30" height="30"/>
	<rect x="-136.5" y="22.5" fill="#000000" stroke="#FFFFFF" stroke-miterlimit="10" width="30" height="30"/>
	<rect x="-93.5" y="22.5" fill="#000000" stroke="#FFFFFF" stroke-miterlimit="10" width="30" height="30"/>
	<rect x="-49.5" y="22.5" fill="#000000" stroke="#FFFFFF" stroke-miterlimit="10" width="30" height="30"/>
</g>
<g id="Your_Icon">
	<g>
		<path fill-rule="evenodd" clip-rule="evenodd" fill="#000000" d="M49.995,0C22.384,0,0,22.396,0,50.018    C0,77.627,22.384,100,49.995,100c27.61,0,49.995-22.373,49.995-49.982C99.989,22.396,77.604,0,49.995,0z M49.995,97.269    c-26.063,0-47.263-21.194-47.263-47.251c0-0.601,0.476-1.077,1.065-1.077c0.584,0,1.065,0.476,1.065,1.077    c0,24.89,20.242,45.12,45.133,45.12c0.584,0,1.065,0.477,1.065,1.056C51.06,96.793,50.579,97.269,49.995,97.269z M49.995,92.713    c-23.552,0-42.707-19.155-42.707-42.695c0-0.601,0.476-1.077,1.065-1.077c0.589,0,1.065,0.476,1.065,1.077    c0,22.362,18.197,40.564,40.576,40.564c0.584,0,1.065,0.477,1.065,1.065C51.06,92.237,50.579,92.713,49.995,92.713z     M49.995,88.168c-21.042,0-38.151-17.126-38.151-38.15c0-0.601,0.477-1.077,1.065-1.077c0.59,0,1.066,0.476,1.066,1.077    c0,19.846,16.162,36.02,36.02,36.02c0.584,0,1.065,0.464,1.065,1.054C51.06,87.67,50.579,88.168,49.995,88.168z M49.995,83.601    c-18.526,0-33.595-15.075-33.595-33.583c0-0.601,0.487-1.077,1.072-1.077c0.594,0,1.064,0.476,1.064,1.077    c0,17.341,14.106,31.452,31.458,31.452c0.584,0,1.065,0.477,1.065,1.054C51.06,83.125,50.579,83.601,49.995,83.601z     M49.995,79.032c-16.003,0-29.027-13.012-29.027-29.015c0-0.601,0.476-1.077,1.071-1.077c0.583,0,1.071,0.476,1.071,1.077    c0,14.825,12.06,26.885,26.885,26.885c0.584,0,1.065,0.486,1.065,1.076C51.06,78.558,50.579,79.032,49.995,79.032z M49.995,74.477    c-13.488,0-24.47-10.983-24.47-24.459c0-0.601,0.481-1.077,1.071-1.077c0.595,0,1.07,0.476,1.07,1.077    c0,12.309,10.014,22.316,22.329,22.316c0.584,0,1.065,0.487,1.065,1.077C51.06,73.999,50.579,74.477,49.995,74.477z M49.995,69.92    c-10.978,0-19.914-8.932-19.914-19.902c0-0.601,0.482-1.077,1.071-1.077c0.595,0,1.071,0.476,1.071,1.077    c0,9.805,7.968,17.761,17.772,17.761c0.584,0,1.065,0.487,1.065,1.065C51.06,69.433,50.579,69.92,49.995,69.92z M49.995,63.562    c-7.487,0-13.556-6.075-13.556-13.544c0-7.503,6.069-13.579,13.556-13.579c7.48,0,13.544,6.075,13.544,13.579    C63.539,57.486,57.475,63.562,49.995,63.562z M68.839,51.072c-0.597,0-1.073-0.477-1.073-1.055    c0-9.804-7.973-17.783-17.771-17.783c-0.59,0-1.065-0.476-1.065-1.077c0-0.578,0.476-1.053,1.065-1.053    c10.976,0,19.914,8.931,19.914,19.914C69.908,50.596,69.427,51.072,68.839,51.072z M73.399,51.072    c-0.59,0-1.064-0.477-1.064-1.055c0-12.321-10.026-22.352-22.34-22.352c-0.59,0-1.065-0.476-1.065-1.065    c0-0.578,0.476-1.066,1.065-1.066c13.488,0,24.47,10.972,24.47,24.482C74.465,50.596,73.988,51.072,73.399,51.072z M77.956,51.072    c-0.59,0-1.065-0.477-1.065-1.055c0-14.837-12.071-26.907-26.896-26.907c-0.59,0-1.065-0.465-1.065-1.066    c0-0.588,0.476-1.065,1.065-1.065c16.003,0,29.027,13.012,29.027,29.039C79.021,50.596,78.545,51.072,77.956,51.072z     M82.518,51.072c-0.595,0-1.07-0.477-1.07-1.055c0-17.352-14.105-31.464-31.453-31.464c-0.59,0-1.065-0.487-1.065-1.076    c0-0.59,0.476-1.055,1.065-1.055c18.519,0,33.588,15.075,33.588,33.595C83.583,50.596,83.102,51.072,82.518,51.072z     M87.074,51.072c-0.595,0-1.071-0.477-1.071-1.055c0-19.868-16.151-36.031-36.008-36.031c-0.59,0-1.065-0.476-1.065-1.055    c0-0.6,0.476-1.076,1.065-1.076c21.024,0,38.145,17.114,38.145,38.162C88.14,50.596,87.657,51.072,87.074,51.072z M91.647,51.072    c-0.595,0-1.071-0.477-1.071-1.055c0-22.385-18.202-40.588-40.582-40.588c-0.59,0-1.065-0.476-1.065-1.065    c0-0.59,0.476-1.066,1.065-1.066c23.551,0,42.712,19.155,42.712,42.719C92.707,50.596,92.23,51.072,91.647,51.072z M96.204,51.072    c-0.59,0-1.072-0.477-1.072-1.055c0-24.913-20.248-45.155-45.137-45.155c-0.59,0-1.065-0.476-1.065-1.077    c0-0.588,0.476-1.065,1.065-1.065c26.063,0,47.267,21.229,47.267,47.297C97.262,50.596,96.794,51.072,96.204,51.072z"/>
		<path fill-rule="evenodd" clip-rule="evenodd" fill="#000000" d="M47.75,50.018c0-1.269,1.01-2.244,2.233-2.244    c1.258,0,2.255,0.975,2.255,2.244c0,1.225-0.997,2.232-2.255,2.232C48.76,52.25,47.75,51.242,47.75,50.018z"/>
	</g>
</g>
</svg>